<svg xmlns="http://www.w3.org/2000/svg" viewBox="0 0 512 512"><g data-name="Layer 16"><path fill="#347242" d="m315.846 336.942 20.688-20.688 73.121 73.12a14.628 14.628 0 0 1 0 20.688 14.628 14.628 0 0 1-20.687 0l-73.12-73.121Z"/><path fill="#66af3f" d="M254.529 76.135c-51.956 0-98.219 19.8-128.178 50.624-30.828 29.96-50.624 76.222-50.624 128.178 0 90.331 79.134 182.927 152.86 182.928 52.043 0 77.729-55.884 99.747-109.123 53.239-22.017 109.122-47.7 109.122-99.747 0-73.726-92.596-152.86-182.927-152.86Z"/><path fill="#347242" d="M389.952 181.49c0 52.044-55.884 77.73-109.122 99.748-22.019 53.238-47.7 109.122-99.749 109.122-22.623 0-45.748-8.748-66.948-23.446 29.845 41.68 73 70.95 114.453 70.951 52.044 0 77.73-55.884 99.748-109.122 53.239-22.019 109.122-47.7 109.123-99.749 0-41.45-29.271-84.609-70.951-114.454 14.694 21.2 23.446 44.325 23.446 66.95Z"/><path fill="#85db53" d="M93.351 272.559c0-51.955 19.8-98.218 50.623-128.177 29.959-30.828 76.222-50.625 128.178-50.625 46.878 0 94.333 21.337 129.172 52.146C366.1 105.9 309.908 76.135 254.53 76.135c-51.957 0-98.22 19.8-128.179 50.624-30.828 29.959-50.625 76.222-50.623 128.177 0 55.381 29.762 111.573 69.766 146.8-30.807-34.844-52.143-82.298-52.143-129.177Z"/><ellipse cx="236.727" cy="237.135" fill="#347242" rx="11.581" ry="112.963" transform="rotate(-45 236.726 237.135)"/><circle cx="120.389" cy="232.278" r="11.346" fill="#85db53"/><circle cx="127.882" cy="208.74" r="6.526" fill="#85db53"/><circle cx="234.144" cy="113.909" r="6.526" fill="#85db53"/><path d="M382.5 120.094c-37.706-31.75-84.564-49.959-128.558-49.959-51.508 0-99.513 18.985-131.714 52.087-33.1 32.2-52.089 80.205-52.089 131.715 0 43.994 18.209 90.852 49.958 128.558 31.769 37.73 71.1 59.37 107.9 59.37 25.108 0 46.407-11.963 65.114-36.571 11.836-15.571 21.5-34.672 30.165-54.262L384.84 412.6a19.628 19.628 0 1 0 27.76-27.76l-61.565-61.566c19.589-8.66 38.689-18.328 54.26-30.165C429.9 274.4 441.865 253.1 441.865 228c0-36.809-21.64-76.138-59.365-107.906Zm23.032 271.817a9.628 9.628 0 1 1-13.617 13.616l-64.364-64.364q2.04-4.8 4.023-9.593 4.782-1.984 9.593-4.023Zm-79.7-68.789-1.917.793-.792 1.916C300.012 381.708 275.347 431.864 228 431.865c-71.857 0-147.86-91.459-147.86-177.928 0-48.85 17.9-94.262 49.109-124.593l.1-.1c30.33-31.21 75.742-49.109 124.593-49.109 86.468 0 177.926 76 177.927 147.86-.005 47.354-50.161 72.018-106.037 95.127Z"/></g></svg>