<svg xmlns="http://www.w3.org/2000/svg" enable-background="new 0 0 48 48" viewBox="0 0 48 48"><path fill="#FFA44D" d="M39.8,4.2l-23.4,8.2C9,14.9,5.1,22.9,7.5,30.3l0,0c1.6,4.8,5.6,8.4,10.5,9.6l0.8,0.2
			c7,1.7,14.1-2.2,16.6-8.9l8.4-22.8C44.7,5.8,42.3,3.3,39.8,4.2z"/><path fill="#404943" d="M4,45c-0.3,0-0.5-0.1-0.7-0.3c-0.4-0.4-0.4-1,0-1.4l30-30c0.4-0.4,1-0.4,1.4,0s0.4,1,0,1.4l-30,30
				C4.5,44.9,4.3,45,4,45z"/><path fill="#404943" d="M22.1,41.4c-1.2,0-2.3-0.1-3.5-0.4l-0.8-0.2c-5.3-1.3-9.5-5.1-11.2-10.3C4,22.7,8.2,14.1,16,11.4
				l23.4-8.2c1.5-0.5,3.2-0.1,4.4,1c1.1,1.2,1.5,2.8,0.9,4.4l-8.4,22.8C34.2,37.6,28.4,41.4,22.1,41.4z M40.8,5
				c-0.2,0-0.5,0-0.7,0.1l0,0l-23.4,8.2c-6.8,2.4-10.4,9.8-8.2,16.6c1.5,4.5,5.2,7.8,9.8,8.9l0.8,0.2c6.5,1.5,13.2-2,15.5-8.3
				l8.4-22.8c0.3-0.8,0.1-1.7-0.5-2.3C41.9,5.2,41.4,5,40.8,5z M39.8,4.2L39.8,4.2L39.8,4.2z"/><path fill="#404943" d="M28,35H14c-0.6,0-1-0.4-1-1V20c0-0.6,0.4-1,1-1s1,0.4,1,1v13h13c0.6,0,1,0.4,1,1S28.6,35,28,35z"/><path fill="#404943" d="M28 29h-8c-.6 0-1-.4-1-1v-8c0-.6.4-1 1-1s1 .4 1 1v7h7c.6 0 1 .4 1 1S28.6 29 28 29zM30 23h-4c-.6 0-1-.4-1-1v-4c0-.6.4-1 1-1s1 .4 1 1v3h3c.6 0 1 .4 1 1S30.6 23 30 23z"/></svg>