<svg xmlns="http://www.w3.org/2000/svg" viewBox="0 0 512 512"><g data-name="Layer 16"><path fill="#347242" d="M423.2 415.523a14.63 14.63 0 0 1-20.688 0l-73.12-73.123 20.687-20.687 73.121 73.122a14.63 14.63 0 0 1 0 20.688Z"/><path fill="#66af3f" d="M88.46 94.517a2.728 2.728 0 0 0-1.621-.3 1.1 1.1 0 0 0-.5.168 1.564 1.564 0 0 0-.376 2.1l96.109 158.382c19.838 33.387 40.54 61.211 59.966 81.25 14.189 14.636 30.206 28.695 52.3 34.53 17.732 4.682 29.965 1.586 32.947.766a57.138 57.138 0 0 0 20.54-10.579 96.179 96.179 0 0 0 20.592-20.783c5.123-7.063 12.383-17.07 14.52-31.375 2.263-15.136-2.39-27.178-4.89-33.421-3.906-9.754-15.675-33.376-54.018-52.868-11.749-5.973-20.3-8.027-32.641-11.517-48.306-13.663-72.459-20.494-89.377-29.859C164.129 160.044 90.023 95.316 88.46 94.517Z"/><path fill="#85db53" d="M114.175 115.953C99.409 103.74 89.034 94.81 88.46 94.517a2.728 2.728 0 0 0-1.621-.3 1.1 1.1 0 0 0-.5.168 1.564 1.564 0 0 0-.376 2.1l48.114 79.289Z"/><path fill="#347242" d="M335.368 232.577c2.5 6.243 7.153 18.285 4.891 33.421-2.138 14.305-9.4 24.312-14.52 31.375a96.224 96.224 0 0 1-20.592 20.783 57.156 57.156 0 0 1-20.54 10.579c-2.983.821-15.216 3.917-32.948-.766a89.033 89.033 0 0 1-28.931-13.838c6.523 8.1 12.985 15.465 19.311 21.991 14.189 14.636 30.206 28.695 52.3 34.53 17.732 4.682 29.965 1.586 32.947.766a57.138 57.138 0 0 0 20.54-10.579 96.179 96.179 0 0 0 20.592-20.783c5.123-7.063 12.383-17.07 14.52-31.375 2.263-15.136-2.39-27.178-4.89-33.421-3.583-8.945-13.794-29.553-45.035-47.943a72.165 72.165 0 0 1 2.355 5.26Z"/><ellipse cx="135.738" cy="145.964" fill="#85db53" rx="5.649" ry="6.095" transform="rotate(-45 135.738 145.963)"/><ellipse cx="127.453" cy="135.572" fill="#85db53" rx="3.578" ry="3.86" transform="rotate(-45 127.453 135.572)"/><path fill="#347242" d="M262.258 264.054c53.217 41.181 90.982 62.12 89.646 64.361-1.487 2.5-51.057-18.851-100.565-55.742-67.353-50.188-107.374-108.873-104.873-111.195 2.296-2.135 39.815 43.783 115.792 102.576Z"/><path d="M177.181 256.427c19.673 33.106 40.654 61.522 60.676 82.175 14.526 14.983 31.2 29.7 54.616 35.884a78.271 78.271 0 0 0 20.007 2.7 58.98 58.98 0 0 0 15.543-1.95 61.21 61.21 0 0 0 18.724-8.819l51.639 51.638a19.649 19.649 0 0 0 27.758 0 19.651 19.651 0 0 0 0-27.758l-51.781-51.782c4.959-7.069 10.959-16.9 12.932-30.1 2.509-16.782-2.89-30.263-5.195-36.019-6.147-15.35-20.921-37.434-56.393-55.467-10.889-5.534-19.14-7.84-29.587-10.759-1.279-.358-2.6-.726-3.963-1.112-47.871-13.54-71.9-20.336-88.312-29.422-30.686-16.986-87.059-64.418-105.583-80-7.332-6.169-7.376-6.192-8.12-6.572a7.813 7.813 0 0 0-4.554-.792v-.006a5.97 5.97 0 0 0-2.933 1.207v-.006a6.539 6.539 0 0 0-1.555 8.617Zm241.893 154.56a9.641 9.641 0 0 1-13.618 0l-50.713-50.713A100.983 100.983 0 0 0 368.3 346.6l50.77 50.77a9.641 9.641 0 0 1 .004 13.617ZM199 184.39c17.424 9.645 41.824 16.546 90.438 30.3 1.373.389 2.7.76 3.991 1.12 10.3 2.878 17.742 4.958 27.746 10.043 32.7 16.624 46.131 36.512 51.641 50.27 2.173 5.427 6.7 16.72 4.587 30.823-1.956 13.093-8.7 22.386-13.621 29.178a91.072 91.072 0 0 1-19.523 19.7l-.151.116a51.818 51.818 0 0 1-18.739 9.66c-4.031 1.109-15.061 3.255-30.344-.781-21.056-5.56-36.47-19.231-49.989-33.176-19.487-20.1-39.979-47.876-59.282-80.362l-85.511-140.92C124.854 130.96 171.1 168.942 199 184.39Z"/></g></svg>