<svg xmlns="http://www.w3.org/2000/svg" enable-background="new 0 0 48 48" viewBox="0 0 48 48"><path fill="#99D83E" d="M24.3,45h-0.5C12.3,45,3,35.7,3,24.2v-0.5C3,11.2,13.2,1,25.7,1H47v21.3C47,34.8,36.8,45,24.3,45z"/><path fill="#50761E" d="M39,16c0.6,0,1-0.4,1-1s-0.4-1-1-1h-3.6l4.3-4.3c0.4-0.4,0.4-1,0-1.4s-1-0.4-1.4,0L34,12.6V9
		c0-0.6-0.4-1-1-1s-1,0.4-1,1v5.6l-6,6V9c0-0.6-0.4-1-1-1s-1,0.4-1,1v13.6l-6,6V17c0-0.6-0.4-1-1-1s-1,0.4-1,1v13.6L1.3,45.3
		c-0.4,0.4-0.4,1,0,1.4C1.5,46.9,1.7,47,2,47s0.5-0.1,0.7-0.3L17.4,32H31c0.6,0,1-0.4,1-1s-0.4-1-1-1H19.4l6-6H39c0.6,0,1-0.4,1-1
		s-0.4-1-1-1H27.4l6-6H39z"/></svg>