<svg xmlns="http://www.w3.org/2000/svg" width="32" height="32" viewBox="0 0 32 32"><g transform="translate(0 -1020.362)"><path fill="#ff9a00" d="m 12.833038,1043.1604 c -4.0844474,1.0944 -8.3330565,-1.5178 -8.3330565,-1.5178 0,0 1.89461,-3.5018 5.2113432,-5.0286 l 0.7191543,0.695 c -4.1685644,-4.1686 -4.272145,-11.6856 -4.272145,-11.6856 0,0 7.517015,0.1036 11.685579,4.2721 l -0.702302,-0.7032 c 1.522938,-3.3266 5.036055,-5.2274 5.036055,-5.2274 0,0 2.61223,4.2486 1.517768,8.3331 l 0.19225,-0.9048 c 2.256851,-1.1144 4.509551,-1.2087 4.509551,-1.2087 0,0 -0.174377,4.1659 -2.851348,6.8429 -1.668516,1.6685 -3.915456,2.3648 -5.37156,2.6526 l 0.0389,-0.039 c -0.288188,1.4562 -0.984671,3.7012 -2.652015,5.3686 -2.676971,2.6769 -6.84286,2.8513 -6.84286,2.8513 0,0 0.0917,-2.1912 1.163296,-4.4165 z"/><path fill-rule="evenodd" style="line-height:normal;text-indent:0;text-align:start;text-decoration-line:none;text-decoration-style:solid;text-decoration-color:#000;text-transform:none;block-progression:tb;white-space:normal;isolation:auto;mix-blend-mode:normal;solid-color:#000;solid-opacity:1" d="m 15.273438,1034.2383 a 0.50005,0.50005 0 0 0 -0.34961,0.8574 l 9.96875,9.9688 a 0.50005,0.50005 0 1 0 0.707031,-0.7071 l -9.96875,-9.9687 a 0.50005,0.50005 0 0 0 -0.357421,-0.1504 z" color="#000" enable-background="accumulate" font-family="sans-serif" font-weight="400" overflow="visible"/><path style="line-height:normal;text-indent:0;text-align:start;text-decoration-line:none;text-decoration-style:solid;text-decoration-color:#000;text-transform:none;block-progression:tb;white-space:normal;isolation:auto;mix-blend-mode:normal;solid-color:#000;solid-opacity:1" d="m 6.1660156,1025.123 a 0.50004997,0.50004997 0 0 0 -0.5078125,0.5079 c 0,0 0.039819,7.653 4.4179689,12.0312 a 0.50004997,0.50004997 0 1 0 0.707031,-0.707 c -3.6807649,-3.6808 -4.0045308,-9.8353 -4.0429686,-10.75 0.9147574,0.038 7.0692396,0.3642 10.7499996,4.0449 a 0.5006434,0.5006434 0 1 0 0.707032,-0.709 c -4.378154,-4.3781 -12.0312504,-4.418 -12.0312504,-4.418 z" color="#000" enable-background="accumulate" font-family="sans-serif" font-weight="400" overflow="visible"/><path style="line-height:normal;text-indent:0;text-align:start;text-decoration-line:none;text-decoration-style:solid;text-decoration-color:#000;text-transform:none;block-progression:tb;white-space:normal;isolation:auto;mix-blend-mode:normal;solid-color:#000;solid-opacity:1" d="M9.7304688 1036.1113a.50005.50005 0 00-.2285157.049c-3.5148232 1.6179-5.4414062 5.2441-5.4414062 5.2441a.50005.50005 0 00.1777343.6641c0 0 4.3643089 2.7425 8.7246098 1.5742a.50005.50005 0 10-.259766-.9649c-3.4384293.9213-6.7599451-.8597-7.4472656-1.2441.3850097-.6449 1.9189935-3.1016 4.6640625-4.3652a.50005.50005 0 00-.1894531-.9571zM22.1875 1023.4648a.50005.50005 0 00-.248047.061c0 0-3.637879 1.9333-5.251953 5.459a.50005.50005 0 10.908203.416c1.260901-2.7542 3.727926-4.2946 4.373047-4.6797.384419.6873 2.165498 4.0088 1.244141 7.4473a.50005.50005 0 10.964843.2597c1.168378-4.3603-1.574218-8.7246-1.574218-8.7246a.50005.50005 0 00-.416016-.2383z" color="#000" enable-background="accumulate" font-family="sans-serif" font-weight="400" overflow="visible"/><path style="line-height:normal;text-indent:0;text-align:start;text-decoration-line:none;text-decoration-style:solid;text-decoration-color:#000;text-transform:none;block-progression:tb;white-space:normal;isolation:auto;mix-blend-mode:normal;solid-color:#000;solid-opacity:1" d="m 20.205078,1039.1348 a 0.50005,0.50005 0 0 0 -0.480469,0.4101 c -0.277403,1.4017 -0.957738,3.5555 -2.515625,5.1133 -2.175502,2.1755 -5.079417,2.5205 -5.90625,2.5977 0.07008,-0.673 0.253975,-1.9797 1.03125,-3.5938 a 0.50055765,0.50055765 0 1 0 -0.902343,-0.4336 c -1.122426,2.3309 -1.210938,4.6133 -1.210938,4.6133 a 0.50005,0.50005 0 0 0 0.519531,0.5195 c 0,0 4.323091,-0.1433 7.175782,-2.9961 1.776801,-1.7767 2.490089,-4.1143 2.789062,-5.625 a 0.50005,0.50005 0 0 0 -0.5,-0.6054 z" color="#000" enable-background="accumulate" font-family="sans-serif" font-weight="400" overflow="visible"/><path style="line-height:normal;text-indent:0;text-align:start;text-decoration-line:none;text-decoration-style:solid;text-decoration-color:#000;text-transform:none;block-progression:tb;white-space:normal;isolation:auto;mix-blend-mode:normal;solid-color:#000;solid-opacity:1" d="m 28.404297,1029.6836 a 0.50005,0.50005 0 0 0 -0.02734,0 c 0,0 -2.345645,0.092 -4.710937,1.2598 a 0.50006986,0.50006986 0 1 0 0.443359,0.8965 c 1.647909,-0.8139 2.997986,-1.0037 3.679687,-1.0742 -0.07717,0.8272 -0.422335,3.7309 -2.597656,5.9062 -1.55899,1.559 -3.711684,2.2386 -5.113281,2.5157 a 0.50005,0.50005 0 1 0 0.193359,0.9804 c 1.510611,-0.2986 3.850865,-1.011 5.628907,-2.789 2.852691,-2.8528 2.996093,-7.1758 2.996093,-7.1758 a 0.50005,0.50005 0 0 0 -0.492187,-0.5215 z" color="#000" enable-background="accumulate" font-family="sans-serif" font-weight="400" overflow="visible"/><path fill-rule="evenodd" style="line-height:normal;text-indent:0;text-align:start;text-decoration-line:none;text-decoration-style:solid;text-decoration-color:#000;text-transform:none;block-progression:tb;white-space:normal;isolation:auto;mix-blend-mode:normal;solid-color:#000;solid-opacity:1" d="m 20.013672,1032.6973 a 0.50005,0.50005 0 0 0 -0.50586,0.4414 l -0.732421,5.5312 a 0.50005,0.50005 0 1 0 0.990234,0.1309 L 20.5,1033.2695 a 0.50005,0.50005 0 0 0 -0.486328,-0.5722 z" color="#000" enable-background="accumulate" font-family="sans-serif" font-weight="400" overflow="visible"/><path fill-rule="evenodd" style="line-height:normal;text-indent:0;text-align:start;text-decoration-line:none;text-decoration-style:solid;text-decoration-color:#000;text-transform:none;block-progression:tb;white-space:normal;isolation:auto;mix-blend-mode:normal;solid-color:#000;solid-opacity:1" d="m 19.289062,1038.2344 a 0.50005,0.50005 0 0 0 -0.08398,0.01 l -5.53125,0.7344 a 0.50005,0.50005 0 1 0 0.13086,0.9902 l 5.53125,-0.7324 a 0.50005,0.50005 0 0 0 -0.04688,-0.998 z" color="#000" enable-background="accumulate" font-family="sans-serif" font-weight="400" overflow="visible"/></g></svg>