<svg xmlns="http://www.w3.org/2000/svg" width="64" height="64"><path style="line-height:normal;text-indent:0;text-align:start;text-decoration-line:none;text-decoration-style:solid;text-decoration-color:#000;text-transform:none;block-progression:tb;isolation:auto;mix-blend-mode:normal" d="M-80.169 436.814a.664.664 0 0 0-.662.66c0 .27.165.504.398.606v.32l.001.009a5.56 5.56 0 0 0-5.293 5.548 5.561 5.561 0 0 0 5.557 5.557 5.56 5.56 0 0 0 5.556-5.557 5.56 5.56 0 0 0-5.293-5.548l.001-.008v-.32a.664.664 0 0 0 .397-.606.663.663 0 0 0-.662-.66zm0 .264a.396.396 0 0 1 .247.706.262.262 0 0 0-.494 0 .396.396 0 0 1 .247-.706zm0 1.851a5.024 5.024 0 0 1 5.028 5.028 5.023 5.023 0 0 1-5.028 5.027 5.024 5.024 0 0 1-5.027-5.027 5.024 5.024 0 0 1 5.027-5.028zm-.396.265a.132.132 0 0 0-.016.001.132.132 0 0 0-.086.045.132.132 0 0 0 0 .002.132.132 0 0 0-.013.019.132.132 0 0 0-.004.007.132.132 0 0 0-.002.004.132.132 0 0 0-.003.007.132.132 0 0 0-.001.004.132.132 0 0 0-.006.022.132.132 0 0 0 0 .003.132.132 0 0 0-.002.021.132.132 0 0 0 0 .002v1.055a.133.133 0 0 0 .265 0v-.66l.536.711a.132.132 0 0 0 .194.074.132.132 0 0 0 .064-.157v-1.023a.132.132 0 0 0-.147-.135.132.132 0 0 0-.117.135v.66l-.543-.722a.132.132 0 0 0-.119-.074zm.396.954-.237 1.07a2.735 2.735 0 0 0-1.593.692l-.19-.123.12.186a2.741 2.741 0 0 0-.837 1.746l-.968.215v-.635a.132.132 0 0 0-.133-.135.132.132 0 0 0-.13.135v.722l-.151-.16a.132.132 0 0 0-.107-.062.132.132 0 0 0-.004 0 .132.132 0 0 0-.117.06l-.15.163v-.723a.132.132 0 0 0-.134-.135.132.132 0 0 0-.13.135v1.023a.132.132 0 0 0 .067.159.132.132 0 0 0 .184-.06l.277-.295.276.294a.132.132 0 0 0 .252-.06.133.133 0 0 0 0-.02v-.36l.968.214c.04.47.2.904.448 1.277l.245-.41a2.313 2.313 0 0 1-.256-.77l.633.141.824-1.374a.265.265 0 0 1 .092-.092l1.216-.73-.13-.58c.256.036.498.114.719.226l.412-.247a2.728 2.728 0 0 0-1.228-.417l-.238-1.07zm3.124.801-3.602 2.162.357.357a.529.529 0 0 1 .643.08.529.529 0 0 1 .08.644l.36.36 2.162-3.603zm-3.458.706-.07.312-.168.757-.892-.577c.318-.257.705-.43 1.13-.492zm-1.333.677.65 1.004-1.283.286c.072-.499.299-.946.633-1.29zm4.08.315-.26.432c.07.171.12.353.148.542l-.417-.092-.592.987 1.009-.224c-.061.424-.235.81-.491 1.128l-.55-.85-.154.255a.265.265 0 0 1-.09.092l-.25.15.858.557c-.343.334-.79.561-1.288.633l.239-1.075-1.014.608.104.467a2.31 2.31 0 0 1-.596-.171l-.43.257c.337.193.718.317 1.124.352l.156.702h-.022a.133.133 0 0 0-.01 0 .133.133 0 0 0-.012 0c-.219 0-.402.18-.402.398a.4.4 0 0 0 .371.393.133.133 0 0 0 .027.003h.256c.08 0 .137.059.137.133 0 .074-.057.13-.137.13h-.521a.133.133 0 1 0 0 .266h.525a.133.133 0 0 0 .03-.004.4.4 0 0 0 .369-.392.402.402 0 0 0-.367-.395.133.133 0 0 0-.032-.004h-.256c-.08 0-.137-.057-.137-.13 0-.075.057-.134.137-.134a.133.133 0 0 0 .012 0 .133.133 0 0 0 .01 0h.08l.023.103.023-.103h.372a.133.133 0 0 0 0-.265h-.313l.156-.702a2.741 2.741 0 0 0 1.746-.839l.185.12-.122-.189c.386-.431.639-.983.691-1.593l.965-.214v.374a.132.132 0 0 0 .184.132h.742a.132.132 0 1 0 0-.263h-.662v-.266h.451a.132.132 0 1 0 0-.263h-.45v-.264h.661a.133.133 0 0 0 0-.266h-.782a.132.132 0 0 0-.023 0 .132.132 0 0 0-.004 0 .132.132 0 0 0-.015.003.133.133 0 0 0-.102.167v.6l-.965-.215a2.727 2.727 0 0 0-.325-1.072zm-3.085.64-2.187 3.647 3.644-2.187-.37-.37a.529.529 0 0 1-.64-.08.529.529 0 0 1-.082-.644l-.365-.365zm1.558 1.393-.016.015.01-.006.006-.009z" color="#000" font-family="sans-serif" font-weight="400" overflow="visible" transform="translate(335 -1642.95) scale(3.77953)"/></svg>