<svg xmlns="http://www.w3.org/2000/svg" enable-background="new 0 0 130 130" viewBox="0 0 130 130"><linearGradient id="a" x1="65" x2="65" y1="75.672" y2="-30.591" gradientUnits="userSpaceOnUse"><stop offset="0" stop-color="#ffb690"/><stop offset=".986" stop-color="#ff2590"/></linearGradient><path fill="url(#a)" d="M129,65c0-35.4-28.6-64-64-64C29.7,1,1,29.6,1,65c0,35.3,28.7,64,64,64
								C100.3,129,129,100.3,129,65z"/><linearGradient id="b" x1="23.892" x2="28.965" y1="56.256" y2="-1.045" gradientUnits="userSpaceOnUse"><stop offset="0" stop-color="#ffb690"/><stop offset=".986" stop-color="#ff2590"/></linearGradient><path fill="url(#b)" d="M46.6,48c-4.4,0.9-8.8,1.9-13.2,2c-12.9,0.5-15.2-5.5-20.4-5.7c-3-0.1-5.2,1.8-9.5,2.9
			c-0.5,1.8-1,3.6-1.3,5.4C17.1,54.6,32.5,53.1,46.6,48z"/><linearGradient id="c" x1="56.012" x2="161.925" y1="38.321" y2="-16.67" gradientUnits="userSpaceOnUse"><stop offset="0" stop-color="#ffb690"/><stop offset=".986" stop-color="#ff2590"/></linearGradient><path fill="url(#c)" d="M107.2,16.9c-1.6-1.4-3.2-2.7-4.9-3.9c-4.5,3.8-9.4,7.1-14.6,9.9C76.2,29,63.6,32.6,51,35.4
			C70.8,33.9,90.3,27.4,107.2,16.9z"/><linearGradient id="d" x1="63.567" x2="63.567" y1="101.939" y2="10.079" gradientUnits="userSpaceOnUse"><stop offset="0" stop-color="#ffb690"/><stop offset=".986" stop-color="#ff2590"/></linearGradient><path fill="url(#d)" d="M99.9,81.5c-2.5-13.1-21.3-27.9-30.9-34.6c-3.1-2.2-7.8-2.2-11,0c-9.5,6.7-28.3,21.5-30.9,34.6
				C27.2,102.3,99.9,102.3,99.9,81.5z"/><linearGradient id="e" x1="44.959" x2="44.959" y1="115.224" y2="30.443" gradientUnits="userSpaceOnUse"><stop offset="0" stop-color="#ffb690"/><stop offset=".986" stop-color="#ff2590"/></linearGradient><path fill="url(#e)" d="M1.4,72.1c1.4,12.1,6.1,23.2,13.3,32.4h73.8c-10.6-11.2-22.3-22-35.7-29.7
			C37,65.7,17.2,62.5,1.4,72.1z"/><linearGradient id="f" x1="66.015" x2="66.015" y1="143.703" y2="29.776" gradientUnits="userSpaceOnUse"><stop offset="0" stop-color="#ffb690"/><stop offset=".986" stop-color="#ff2590"/></linearGradient><path fill="url(#f)" d="M122.2,93.7c-8.8-12.5-20.5-26.5-30.3-29.1c-18.5-5-26.6,8.1-30.9,17.7
			c-4.3,9.6-11.4,12.8-28.9,6.2c-6.7-2.5-14.8,2.2-22.3,9c3.9,6.6,9,12.5,14.9,17.3h80.6C112.3,109,118.1,101.9,122.2,93.7z"/><linearGradient id="g" x1="65.002" x2="65.002" y1="137.756" y2="101.7" gradientUnits="userSpaceOnUse"><stop offset="0" stop-color="#ffb690"/><stop offset=".986" stop-color="#ff2590"/></linearGradient><path fill="url(#g)" d="M24.7,114.7c11,8.9,25,14.3,40.3,14.3c15.3,0,29.3-5.4,40.3-14.3H24.7z"/><linearGradient id="h" x1="50.451" x2="43.011" y1="39.249" y2="-29.767" gradientUnits="userSpaceOnUse"><stop offset="0" stop-color="#ffb690"/><stop offset=".986" stop-color="#ff2590"/></linearGradient><path fill="url(#h)" d="M18.6,21c20.4,2.3,39.9-1.2,58.6-11.2c-9.1,3.6-19.3,4.1-28.8,1.7c-4.3-1.1-8.6-2.9-12.9-3.2
			C29.2,11.5,23.5,15.8,18.6,21z"/><linearGradient id="i" x1="113.444" x2="113.444" y1="115.41" y2="75.582" gradientUnits="userSpaceOnUse"><stop offset="0" stop-color="#293377"/><stop offset=".989" stop-color="#14163f"/></linearGradient><path fill="url(#i)" d="M125.2,75.6h-23.5c0,11.8,1.1,25.3,2.7,39.8c2.6-2,5-4.2,7.2-6.6l1.8-19.9l1.5,16.1
				c3.9-4.9,7.1-10.3,9.5-16.2C124.7,84.1,125,79.7,125.2,75.6z"/><linearGradient id="j" x1="110.354" x2="110.354" y1="35.208" y2="84.797" gradientUnits="userSpaceOnUse"><stop offset="0" stop-color="#8170fe"/><stop offset=".996" stop-color="#6940e0"/></linearGradient><path fill="url(#j)" d="M126.1,79.1c-0.6,4.7-25.1,1.3-24.5-3.4c0.7-7.3,0.8-15.2,0.5-23.7c-2.4,0.4-4.6,0.7-8.2,1.2
					V41.8c3.3-1,16.8-3.1,22.7-3c11.7-0.3,10.6,9.9,9.9,16.2C125.4,64.3,126.1,79.1,126.1,79.1z"/><linearGradient id="k" x1="356.938" x2="356.938" y1="27.21" y2="-29.977" gradientTransform="matrix(1 0 .0643 .9892 -243.396 40.774)" gradientUnits="userSpaceOnUse"><stop offset="0" stop-color="#6f2d13"/><stop offset=".993" stop-color="#4a1a08"/></linearGradient><path fill="url(#k)" d="M124.6,49.5c0.8,13.8-20,14.6-20.9,0.7c0.9-7.6,1.4-16.7,2.8-24.2c0.6-3.2,0.7-7.6,4.6-7.7
					c5.7-0.2,7.4,4.6,8.4,7.9C121.6,33.6,124.2,42,124.6,49.5z"/><linearGradient id="l" x1="126.88" x2="89.506" y1="72.428" y2="47.534" gradientUnits="userSpaceOnUse"><stop offset="0" stop-color="#fdd3c3"/><stop offset=".996" stop-color="#fbb09b"/></linearGradient><path fill="url(#l)" d="M125.5,66.3c-0.4-0.1-2.2-1.1-2.2-1.1s-5.4,0.1-6.4,0.1c-9.3-0.3-24.9-2.9-27.6-13.8h13.3
					c0.3,0.4,0.5,0.8,0.7,1c2.3,3.3,6,5.7,9.6,7.5c2.5,1.3,5.1,2.3,7.8,3.2c0.5,0.2,2.9,0.7,2.9,0.7s1.2-0.9,1.6-0.8
					c0.5,0.1-0.4,1.1-0.5,1.2l1.2-0.1C127,64.3,126.7,66.5,125.5,66.3z"/><linearGradient id="m" x1="-1877.903" x2="-1915.277" y1="1008.642" y2="983.747" gradientTransform="rotate(32.092 698.092 3943.397)" gradientUnits="userSpaceOnUse"><stop offset="0" stop-color="#fdd3c3"/><stop offset=".996" stop-color="#fbb09b"/></linearGradient><path fill="url(#m)" d="M68.4,62.7c-0.5-1.5-0.8-3-0.9-4.5c0-0.3,0-0.7,0-1.2l-11.3-7.1c-3.9,11.9,3.3,19.3,12.1,24.3
					V62.7z"/><linearGradient id="n" x1="81.958" x2="81.447" y1="24.222" y2="34.971" gradientUnits="userSpaceOnUse"><stop offset="0" stop-color="#fdd3c3"/><stop offset=".996" stop-color="#fbb09b"/></linearGradient><path fill="url(#n)" d="M85.8,35.2l-11-1.4c0,0,3.5-2.4,1.9-8.7l11.8-0.5C88.6,24.5,84.6,30.7,85.8,35.2z"/><linearGradient id="o" x1="-562.959" x2="-561.346" y1="203.718" y2="228.535" gradientTransform="rotate(10.423 847.265 3654.254)" gradientUnits="userSpaceOnUse"><stop offset="0" stop-color="#6f2d13"/><stop offset=".993" stop-color="#4a1a08"/></linearGradient><path fill="url(#o)" d="M91.8,20.4c-0.9,5-5.5,10.3-10.5,9.4s-7.4-7.6-6.5-12.6S80.3,8.9,85,9.7
					C89.7,10.6,92.7,15.4,91.8,20.4z"/><linearGradient id="p" x1="80.468" x2="80.738" y1="37.959" y2="34.444" gradientUnits="userSpaceOnUse"><stop offset=".004" stop-color="#e6e7e8"/><stop offset="1" stop-color="#f1f2f2"/></linearGradient><path fill="url(#p)" d="M89.4,36.1l-17.1-4.4c0,0,2.1-1.5,3.2-3.2c1.1-1.6,10-0.1,11.2,1.5
					C87.8,31.6,89.4,36.1,89.4,36.1z"/><g><linearGradient id="q" x1="79.514" x2="79.514" y1="128.712" y2="78.809" gradientUnits="userSpaceOnUse"><stop offset="0" stop-color="#293377"/><stop offset=".989" stop-color="#14163f"/></linearGradient><path fill="url(#q)" d="M70.9,128.7c1.5-0.1,3-0.3,4.5-0.6l4.1-35.9l3.9,34.1c1.7-0.5,3.4-1.1,5.1-1.7
					c2.2-17.5,4-32.2,4.6-45.7H65.9C66,94.2,68,109.7,70.9,128.7z"/><linearGradient id="r" x1="101.27" x2="101.392" y1="50.032" y2="49.542" gradientUnits="userSpaceOnUse"><stop offset="0" stop-color="#fdd3c3"/><stop offset=".996" stop-color="#fbb09b"/></linearGradient><path fill="url(#r)" d="M101.5,49.8c-0.1,0-0.2,0-0.3,0.1c0-0.2,0.1-0.3,0.1-0.4C101.4,49.6,101.4,49.7,101.5,49.8z"/><linearGradient id="s" x1="78.993" x2="78.993" y1="30.85" y2="85.021" gradientUnits="userSpaceOnUse"><stop offset=".004" stop-color="#e6e7e8"/><stop offset="1" stop-color="#f1f2f2"/></linearGradient><path fill="url(#s)" d="M93.3,58.1c-0.2-0.1-0.4-0.2-0.6-0.3c0.4,7.1,0.8,17.3,0.8,21c0.1,7.3-25,8.3-27.6,2.3
						c-1.5-3.5-1.6-14.3-1.5-24c-3.5-0.1-9.6-0.4-9.6-3.3c0-9,3.7-16.4,8.8-19.5c6.2-3.8,14.2-4.4,21.1-2c3.2,1.1,6.3,2.7,8.9,4.8
						c4.8,3.7,9.4,12.9,9.6,13.9C103.7,53.2,98.5,60.2,93.3,58.1z"/></g><g><linearGradient id="t" x1="1680.225" x2="1680.225" y1="233.617" y2="115.837" gradientTransform="matrix(-.9972 -.1157 -.04026 1.0078 1759.996 62.067)" gradientUnits="userSpaceOnUse"><stop offset="0" stop-color="#ffb127"/><stop offset=".996" stop-color="#ff8424"/></linearGradient><path fill="url(#t)" d="M92.7,47c-0.7-5.4-5-9.7-10.3-10.5c-5.4-0.8-12.8-1.2-15.8,1.8c-5.1,5-6.8,27.7-5.9,37.8
							s23.4,11.6,27.2,4.8C90.7,76,94.2,58.5,92.7,47z"/><linearGradient id="u" x1="-238.292" x2="-238.292" y1="177.634" y2="139.95" gradientTransform="matrix(.9972 .1157 -.08242 .9933 327.404 -66.315)" gradientUnits="userSpaceOnUse"><stop offset="0" stop-color="#ffb127"/><stop offset=".996" stop-color="#ff8424"/></linearGradient><path fill="url(#u)" d="M90.6,51.4c0-0.8-0.1-1.6-0.2-2.4c-0.6-4.6-4.3-8.3-8.7-9c-4.6-0.7-10.9-1-13.5,1.6
							c-1.2,1.2-2.3,3.7-3,6.9C64.4,57.5,89.8,60.5,90.6,51.4z"/><linearGradient id="v" x1="-238.624" x2="-238.624" y1="200.841" y2="154.14" gradientTransform="matrix(.9972 .1157 -.08242 .9933 327.404 -66.315)" gradientUnits="userSpaceOnUse"><stop offset="0" stop-color="#ffb127"/><stop offset=".996" stop-color="#ff8424"/></linearGradient><path fill="url(#v)" d="M63.3,64.7c-0.1,3.4-0.1,6.6,0.1,8.9c0.7,8.4,19.6,9.7,22.7,4c1-1.8,2.1-5.5,3-9.9
							C89.5,63,63.7,60,63.3,64.7z"/><g><linearGradient id="w" x1="-238.292" x2="-238.292" y1="156.422" y2="158.665" gradientTransform="matrix(.9972 .1157 -.08242 .9933 327.404 -66.315)" gradientUnits="userSpaceOnUse"><stop offset="0" stop-color="#ffb127"/><stop offset=".996" stop-color="#ff8424"/></linearGradient><path fill="url(#w)" d="M77.8,58.9l-1.4-0.2c-0.4,0-0.7-0.4-0.6-0.8l0.3-3c0-0.4,0.4-0.7,0.7-0.6l1.4,0.2
						c0.4,0,0.7,0.4,0.6,0.8l-0.3,3C78.5,58.7,78.2,59,77.8,58.9z"/></g></g></svg>