<svg xmlns="http://www.w3.org/2000/svg" viewBox="0 0 512 512"><path fill="none" d="M443.7 279.4c0-40.5-32.8-73.2-73.2-73.2s-73.2 32.8-73.2 73.2 32.8 73.2 73.2 73.2 73.2-32.7 73.2-73.2zm-74.7 4.1-63.5 19.8c-2.8-7.4-4.6-15.5-4.6-23.9 0-37.8 31.2-68.5 68.2-68.5v72.6zm5-72.4c38 2.4 64.4 32.1 64.4 68.3 0 8-1.7 15.7-4.2 22.9L374 283.5v-72.4z"/><path fill="#231F20" d="m29 317.7 114-34.2V15.9L29 50.1zM147 283.5l109 34.2V50.1L147 15.9zM438.4 279.4c0-36.2-26.4-65.9-64.4-68.3v72.4l60.1 18.9c2.6-7.2 4.3-14.9 4.3-23z"/><path fill="#231F20" d="M374 15.9v170c52 2.4 90.2 43.5 90.2 93.8 0 10.8-1.9 20.9-5.2 30.6l24 7.6V50.1L374 15.9zm-5 169.5V15.9L261 50.1v267.6l21.3-6.8c-3.5-9.9-6.5-20.4-6.5-31.5.1-51.8 41.2-93.9 93.2-94z"/><path fill="#231F20" d="M301.2 279.4c0 8.4 1.1 16.4 3.9 23.9l63.9-19.8v-72.6c-37 0-67.8 30.8-67.8 68.5z"/><path fill="#231F20" d="M459.5 279.4c0-49.3-39.8-89.3-89.2-89.3s-89.9 40-89.9 89.3c0 48 36.6 87.1 84.6 89.2V392h.7c-3.9 0-5.7 4.7-5.7 8.6v88.3c0 3.9 1.8 7.1 5.7 7.1h9.6c3.9 0 8.8-3.2 8.8-7.1v-88.3c0-3.9-4.9-8.6-8.8-8.6H374v-23.4c47-2.1 85.5-41.2 85.5-89.2zm-89 73.3c-40.5 0-73.2-32.8-73.2-73.2s32.8-73.2 73.2-73.2 73.2 32.8 73.2 73.2-32.8 73.2-73.2 73.2z"/></svg>